<svg xmlns="http://www.w3.org/2000/svg" width="128" height="128" viewBox="0 0 128 128" fill="none"><defs><filter id="shadow" x="-20%" y="-20%" width="140%" height="140%"><feDropShadow dx="0" dy="3" stdDeviation="4" flood-color="#0f172a" flood-opacity="0.08"/></filter></defs>
    <circle cx="64" cy="44" r="18" fill="#FFFFFF" stroke="#1F2A44" stroke-width="7" filter="url(#shadow)"/>
    <path d="M36 99 C40 79 54 72 64 72 C74 72 88 79 92 99" fill="#FFFFFF" stroke="#1F2A44" stroke-width="7" stroke-linecap="round"/>
    <path d="M96 35 l5 4 6 -2 3 6 6 2 -1 7 4 5 -4 5 1 7 -6 2 -3 6 -6 -2 -5 4 -5 -4 -6 2 -3 -6 -6 -2 1 -7 -4 -5 4 -5 -1 -7 6 -2 3 -6 6 2z" fill="none" stroke="#2563EB" stroke-width="5" opacity="0.9"/>
    <path d="M88 74 L105 79 L101 99 C96 106 90 109 84 111 C78 109 72 106 67 99 L63 79 Z" fill="#2563EB" opacity="0.12" stroke="#2563EB" stroke-width="4" stroke-linejoin="round"/>
    </svg>