<svg xmlns="http://www.w3.org/2000/svg" width="128" height="128" viewBox="0 0 128 128" fill="none"><defs><filter id="shadow" x="-20%" y="-20%" width="140%" height="140%"><feDropShadow dx="0" dy="3" stdDeviation="4" flood-color="#0f172a" flood-opacity="0.08"/></filter></defs>
    <path d="M45 84 H93 C102 84 108 78 108 69 C108 60 101 54 93 54 C91 40 80 31 67 31 C56 31 46 37 42 47 C31 48 22 57 22 68 C22 77 29 84 38 84 Z" fill="#FFFFFF" stroke="#1F2A44" stroke-width="7" stroke-linejoin="round" filter="url(#shadow)"/>
    <path d="M60 60 L70 43 H86 L76 60 Z" fill="#22C55E"/>
    <path d="M60 60 H76 L69 76 H53 Z" fill="#2563EB"/>
    <path d="M76 60 L86 43 L95 60 L85 76 H69 Z" fill="#F59E0B"/>
    <circle cx="96" cy="84" r="12" fill="#FFFFFF" stroke="#1F2A44" stroke-width="3"/>
    <path d="M96 78 v12 M90 84 h12" stroke="#22C55E" stroke-width="4" stroke-linecap="round"/>
    </svg>