<svg xmlns="http://www.w3.org/2000/svg" width="128" height="128" viewBox="0 0 128 128" fill="none"><defs><filter id="shadow" x="-20%" y="-20%" width="140%" height="140%"><feDropShadow dx="0" dy="3" stdDeviation="4" flood-color="#0f172a" flood-opacity="0.08"/></filter></defs>
    <rect x="20" y="30" width="88" height="54" rx="8" fill="#FFFFFF" stroke="#1F2A44" stroke-width="7" filter="url(#shadow)"/>
    <rect x="26" y="38" width="76" height="38" rx="4" fill="#E2E8F0"/>
    <path d="M37 60 C37 49 54 43 54 33 C54 25 48 19 40 19 C32 19 26 25 26 33 C26 43 43 49 43 60 Z" fill="#22C55E" filter="url(#shadow)"/>
    <circle cx="40" cy="33" r="5" fill="#FFFFFF"/>
    <line x1="36" y1="50" x2="92" y2="50" stroke="#FFFFFF" stroke-width="3" opacity="0.7"/>
    <line x1="52" y1="38" x2="52" y2="74" stroke="#FFFFFF" stroke-width="3" opacity="0.7"/>
    <circle cx="99" cy="87" r="14" fill="#F59E0B" filter="url(#shadow)"/>
    <path d="M92 87 l5 5 10 -11" stroke="#FFFFFF" stroke-width="7" stroke-linecap="round" stroke-linejoin="round"/>
    </svg>