<svg xmlns="http://www.w3.org/2000/svg" width="128" height="128" viewBox="0 0 128 128" fill="none"><defs><filter id="shadow" x="-20%" y="-20%" width="140%" height="140%"><feDropShadow dx="0" dy="3" stdDeviation="4" flood-color="#0f172a" flood-opacity="0.08"/></filter></defs>
    <rect x="22" y="36" width="24" height="50" rx="4" fill="#2563EB" opacity="0.9"/>
    <rect x="46" y="24" width="26" height="62" rx="4" fill="#1F2A44" opacity="0.95"/>
    <rect x="72" y="32" width="28" height="54" rx="4" fill="#14B8A6" opacity="0.95"/>
    <g fill="#FFFFFF" opacity="0.8">
      <rect x="29" y="44" width="5" height="6"/><rect x="29" y="56" width="5" height="6"/><rect x="29" y="68" width="5" height="6"/>
      <rect x="56" y="34" width="5" height="6"/><rect x="56" y="46" width="5" height="6"/><rect x="56" y="58" width="5" height="6"/><rect x="56" y="70" width="5" height="6"/>
      <rect x="82" y="40" width="5" height="6"/><rect x="82" y="52" width="5" height="6"/><rect x="82" y="64" width="5" height="6"/>
    </g>
    <path d="M88 92 C88 79 108 73 108 60 C108 50 100 42 90 42 C80 42 72 50 72 60 C72 73 92 79 92 92 Z" fill="#EF4444" filter="url(#shadow)"/>
    <circle cx="90" cy="60" r="6" fill="#FFFFFF"/>
    </svg>